<svg viewBox="0 0 1024 1024" version="1.1" xmlns="http://www.w3.org/2000/svg" xmlns:xlink="http://www.w3.org/1999/xlink">
  <path d="M512.572503 0.319842c146.594133 0 293.188266 0.159921 439.622479-0.319842 12.607095 0 15.645592 3.464952 14.526146 15.459018-7.223093 76.38887-13.966423 152.831047-20.6831 229.219917-5.730498 65.380983-11.114501 130.815274-16.818345 196.196257-5.810458 66.260548-11.887452 132.521096-17.724563 198.781644q-8.50246 96.112444-16.738385 192.224889c-2.665348 30.918035-5.730498 61.836071-7.809469 92.807413-0.506416 7.622895-5.330696 8.555767-10.075015 9.755173q-113.197324 28.332648-226.554569 56.372108-61.303001 15.299097-122.765924 30.811421c-7.996044 2.078971-15.805513 3.358338-24.281319 1.22606Q326.264687 978.449205 149.045707 934.497618c-8.342539-2.078971-11.460996-5.197428-12.2606-14.686066-8.902262-106.613915-18.657435-212.934642-28.012807-319.41529-7.569588-86.623806-14.686067-173.247612-22.255654-259.844764Q73.882897 196.06299 60.822692 51.627788C59.676593 38.807465 59.19683 25.907181 57.384393 13.193472 55.838492 2.292199 60.049741 0.026653 70.258024 0.106614c75.935761 0.399802 151.924829 0.213228 227.807282 0.213228z" fill="#E34C27"></path>
  <path d="M518.702804 191.23871c0-35.075978 0.133267-70.17861-0.266535-105.254588 0-8.449153 2.212239-11.700877 11.194461-11.674223q173.247612 0.373149 346.495224 0c5.330696 0 8.529113 0 7.996043 7.622895-2.505427 40.513288-6.370181 80.893308-10.661391 121.246674-2.665348 24.574507-3.67818 49.308936-5.837112 73.910097-3.198417 36.461959-6.849944 72.870611-10.128322 109.279263-2.132278 23.721596-3.758141 47.496499-5.837112 71.244749-3.331685 37.767979-6.956558 75.509305-10.234936 113.277284-2.105625 24.174705-3.624873 48.402717-5.783805 72.577423-3.198417 36.00885-6.849944 71.964393-10.101668 107.973242-2.132278 23.721596-4.664359 47.469846-5.543924 71.244749-0.559723 14.606106-4.584398 28.919024-3.038496 43.631745 0.986179 9.11549-7.116479 7.996044-11.860798 9.248757-50.934798 13.006898-101.949556 25.640647-152.990968 38.301049-40.30006 10.021708-80.733387 19.483693-120.846873 30.225045-11.407689 3.06515-12.953591-0.586377-12.846977-10.34155 0.293188-31.984174 0-63.968349 0.159921-95.952524 0-5.463963 0.266535-10.661391-5.330696-13.833155a8.848955 8.848955 0 0 1 5.917073-4.024675c65.620865-13.673235 131.081808-28.11942 196.729326-41.632734 22.095734-4.557745 22.655457-4.717666 24.467894-27.319816 5.330696-65.860746 11.64757-131.641532 17.058226-197.502277 2.665348-33.583383 5.597231-67.166766 8.955569-100.723497 1.545902-15.432364 0.506416-17.16484-14.979255-17.191493-70.125303-0.133267-140.277259 0-210.562482 0-7.063172 0-14.232958 0.826258-21.082902-1.999011a7.996044 7.996044 0 0 1-3.438299-3.571566c-2.318853-5.463963-1.999011-11.274422-2.025664-17.031573v-97.045316a40.859783 40.859783 0 0 1 1.892397-15.725553 8.475806 8.475806 0 0 1 3.411645-3.75814c7.169786-3.171764 14.819334-2.265546 22.308962-2.2922h215.573336c21.962466 0 22.255655 0 24.787735-22.255654 2.37216-20.6831 3.411645-41.52612 5.890419-62.20922 1.199407-9.941748-3.438299-13.673235-12.87363-13.646581h-234.204118c-7.036518 0-14.286265 0.932872-20.84302-2.665348z" fill="#EF652A"></path>
  <path d="M518.836071 537.840548q-121.859705 0.213228-243.692756 0.506416c-6.316874 0-9.382025-1.1461-9.995055-8.475806q-10.128322-119.940654-20.922981-240.014577c-2.45212-27.826232-4.584398-55.732424-7.702855-83.478695-1.252714-11.141154 0.61303-15.085869 13.326739-14.979255 84.811369 0.666337 169.596085 0.346495 254.407455 0.319842 4.850933 0 9.72852-0.319842 14.606106-0.479763l-0.213227 0.986179c3.944715 3.731487 4.184596 8.689034 4.237903 13.56662q0.399802 39.260574 0 78.521149c0 4.877587-0.293188 9.835134-4.237903 13.56662l0.239881 0.986179c-5.810458 4.397824-12.660402 3.59822-19.243812 3.59822h-125.27135c-16.818345 0-17.77787 0.639683-16.711731 17.191494 2.052318 31.850907 6.210261 63.541893 7.996044 95.419454 0.586377 10.181629 6.849944 12.233947 15.32575 12.2606h119.807387c6.183607 0 12.527135-0.53307 17.911138 3.598219l-0.239882 0.986179c3.944715 3.731487 4.184596 8.689034 4.237903 13.566621q0.399802 39.260574 0 78.521148c0.106614 5.037507 0 10.021708-3.864754 13.833156z" fill="#EAEAEA"></path>
  <path d="M518.836071 537.840548l-0.133267-105.734351c81.639605-0.159921 163.252557-0.186574 244.892162-0.666337 9.008876 0 8.742341 4.264557 8.182618 10.661392q-8.609074 95.952523-16.978266 192.144928c-3.891408 44.164814-7.996044 88.329629-11.56761 132.521097-0.61303 7.756162-2.425467 10.661391-10.901272 12.473828-67.353341 13.699888-134.520107 28.252687-201.740181 42.645566-3.864754 0.826258-7.622895 2.665348-11.674224 1.012832-4.024675-3.651527-4.184596-8.609074-4.237903-13.32674q-0.426456-39.660376 0-79.294099c0-4.82428 0.133267-9.80848 4.131289-13.48666l2.505427-2.505427c7.009865-6.450142 16.258622-6.690023 24.787736-8.529113 26.013795-5.677191 52.000937-11.460996 78.121346-16.711731 10.661391-2.158932 15.698899-7.143132 16.711731-18.417554 3.198417-36.222078 6.503449-72.417502 9.621906-108.63958 1.652516-19.350426 0.826258-19.563653-18.124366-19.590306h-95.952523c-6.156954 0-12.527135 0.639683-17.884484-3.544913z" fill="#FEFEFE"></path>
  <path d="M518.702804 716.60543v106.214112l-5.330696 1.279367c-70.285223-15.112522-140.543793-30.331659-210.935631-45.071032-6.929904-1.439288-9.435331-3.784794-9.995055-10.661392-4.451131-55.332622-9.062183-110.611937-14.206304-165.864598-0.852911-9.008876 1.412634-11.194461 10.181629-11.007887q41.979229 0.746297 83.958458 0c8.848955-0.159921 12.420521 2.105625 12.926937 11.540957 1.359327 24.36128 4.451131 48.642599 5.570577 73.003878 0.479763 10.661391 4.984201 14.232958 14.659414 16.205315 37.794633 7.622895 75.455998 16.125355 113.170671 24.36128z" fill="#EAEAEA"></path>
  <path d="M518.702804 538.613499c42.992061 0 85.984122 0 129.002837-0.479763 6.903251 0 8.848955 1.465941 8.129311 8.928915-4.264557 44.537963-7.996044 89.155886-11.647571 133.747157-0.426456 4.877587-1.359327 8.315885-7.036518 9.461985-38.620891 7.809469-77.295088 15.85882-115.809365 23.82821-4.184596-3.998022-2.425467-9.168797-2.425467-13.806502q-0.373149-80.840001-0.213227-161.680002z" fill="#EF652A"></path>
  <path d="M518.702804 297.879278V192.224889q133.267394-0.239881 266.374866-0.61303c7.409667 0 8.902262 2.665348 8.262579 9.355371-2.878576 30.038471-5.677191 60.076941-7.996044 90.168718-0.69299 9.72852-7.223093 7.143132-12.367214 7.143133q-84.598142 0.213228-169.16963 0c-28.412608 0.07996-56.798563-0.239881-85.104557-0.399803z" fill="#FEFEFE"></path>
  <path d="M518.836071 431.120019c-49.149015 0.159921-98.324683 0.186574-147.473698 0.666337-7.622895 0-8.662381-3.944715-9.142143-9.701867-3.251724-38.807465-6.263568-77.641584-10.021708-116.422395-0.932872-9.80848 5.330696-7.223093 9.861787-7.223092q53.813374-0.213228 107.626747 0c16.391889 0 32.757125 0.319842 49.149015 0.479762z" fill="#E34C27"></path>
</svg>