<svg viewBox="0 0 1024 1024" height="24" width="24" version="1.1" xmlns="http://www.w3.org/2000/svg" xmlns:xlink="http://www.w3.org/1999/xlink">
  <path d="M54.683 505.975a447.512 447.512 0 1 0 895.025 0 447.512 447.512 0 1 0-895.025 0z" fill="#1471B3"></path>
  <path d="M54.683 542a447.512 411.488 0 1 0 895.025 0 447.512 411.488 0 1 0-895.025 0z" fill="#1778BD"></path>
  <path d="M720.933 163.463L649 137.95l90.946 78.067-34.017-2.009-6.97 13.938c-17.121-13.583-37.792-20.317-62.005-19.963-11.458 3.305-19.133 10.392-22.916 21.021l5.437 22.442 69.563 5.55c5.437 7.796 16.416 7.442 16.416 23.504l25.984-1.063 18.07-5.904c19.963 24.567 34.963 55.275 43.938 93.188l-20.433 14.292-5.55 17.479-0.471 61.533s-12.992 12.992-15 8.975c-2.009-4.017 0.587-50.433-6.971-55.037-7.558-4.605-15.238-4.959-23.03-0.946-7.795-15.592-18.308-26.692-32.012-32.009a152.392 152.392 0 0 0-14.054-25.041c-5.312 1.3-9.092 3.779-10.983 8.033 2.004-7.558 1.891-15.117-2.004-23.03l-32.009-6.024-22.446-1.417c-8.266 2.363-13.933 8.388-15.47 19.488l-12.517 10.512-7.558 26.459c-1.892 6.966 23.383 18.07 33.541 15.47 10.159-2.6 29.53 25.513 29.53 25.513l-5.08 19.962s-7.916 14.055-9.92 11.105l-19.017-29.055c-13.346-7.679-27.167-6.379-40.984 0-3.191 27.755-4.016 61.18 0 75 3.9 13.938 9.921 19.959 15.942 17.955 6.025-1.892 30-19.963 30-19.963s22.088 57.992 22.088 61.063c0 2.954 32.954 26.929 34.962 26.929s8.975 3.07 10.038-4.013c0.945-6.97-4.017-19.962-1.063-21.97 2.95-2.005 6.97 2.008 8.03 12.05 1.42 14.17 2.716 43.466 0.95 49.962-4.017 15-23.98 36.02-23.98 36.02s-6.02 21.967-2.95 23.03c2.95 0.946 12.992 30 17.004 37.917 3.9 8.033 70.988 210.825 203.975 41.454 81.259-103.463 99.213-245.9 53.975-363.421-28.816-74.88-97.67-114.325-145.037-209.05l-64.009-32.483z" fill="#10559A"></path>
  <path d="M150 145.983c0.592 31.18 14.292 61.892 47.95 92.009 38.267-10.159 74.408-11.221 108.542-2.48 38.737-40.983 80.195-55.866 123.541-53.504-30.237 23.975-52.087 53.738-63.07 90.946 4.487 13.817 12.991 25.984 31.062 34.017 30.238 4.37 63.896 1.417 96.967 10.037l-2.005 25.038c-20.433 37.442-63.308 49.133-98.029 79.487 5.196 21.967 3.071 41.221-2.008 59.409-12.758-10.275-25.983-15.238-39.92-13.938l-2.48 1.538c-42.52 41.454-6.612 76.65 60.47 109.487 16.893 3.067 34.488 2.242 53.034-4.016 35.43-19.488 123.425-39.567 139.959 28.933-8.155 10.042-20.434 11.458-34.017 10.042-4.604 3.775-13.463 5.433-17.954 8.975-51.967 40.625-105.709 56.337-168.542 46.533 12.046 14.525 26.575 26.692 43.463 36.496 34.962 2.479 54.804 7.204 57.045 14.525H452c58.82 25.512 116.338 29.291 171.967 1.42 0.354 5.192-3.071 12.28-8.034 20.075 18.542-15.47 35.434-35.079 55.042-49.016l3.067 19.017c32.008-6.971 58.346-57.171 77.954-156.967l12.987 35.904c12.759-54.333 12.405-119.175 6.5-189.45 15.588 16.417 30.946 36.258 39.45 64.488 2.596-99.446-26.458-191.455-97.912-244.959 15.712-3.187 39.683 6.38 85.983 40.984-25.75-50.313-70.512-97.084-132.991-141.021 85.391 24.8 162.279 75.35 221.925 173.025 0.595-20.55-48.659-88.346-94.605-126.967l2.605-13.108 54.091 48.07 2.95-10.983c70.863 82.204 85.63 153.304 86.813 221.804-1.775 48.425-8.625 94.134-25.4 134.884 30.475-20.555 44.058-42.284 29.77-111.375l10.863-43.346c15.588 68.029 16.413 141.612-20.317 229.487-17.716 48.067-61.179 95.663-91.766 143.496l39.095-27.042 42.28-82.912c4.016 25.63 2.129 52.908-13.346 83.97-30.946 47.01-71.809 83.742-122.246 110.788-0.47 12.404-7.792 25.75-25.746 40.159C702.51 935.417 619.95 954.429 516.96 949l15.003 13.933c-41.104 0.121-81.612-5.191-121.179-18.779l23.742 15.354c-231.02-55.983-377.12-203.379-379.6-404.046l-21.375 38.03c-0.825-42.871 15-79.959 22.32-119.763l3.542-33.07-15.354 36.374c7.204-50.666 18.071-102.633 57.988-164.996C97.083 249.68 113.858 194.642 150 145.983z" fill="#E46725"></path>
  <path d="M366.962 272.95c-14.408 58.7-9.566 110.196 27.992 148.58 7.558-5.905 14.171-12.76 23.267-18.31 21.496-12.758 47.479-22.558 74.762-61.182L494.987 317c-15.233-5.433-55.037-7.796-96.966-10.037-17.121-7.321-27.634-18.663-31.059-34.013z m-16.416 195.588c-86.338-3.78-112.438 51.379-99.567 144.445 2.009-49.845 81.142-110.195 81.258-111.379 0.946-12.279 7.325-23.266 18.309-33.066z m228.187 144.916c-18.425-9.333-45-9.683-82.795 2.48-84.096 20.428-153.188 8.858-210.942-26.93 9.567 30.708 35.317 57.638 94.012 77.004 31.417 5.788 62.717 6.5 93.78-2.125 18.308-5.437 35.429-13.108 50.545-24.096 18.55-14.995 36.975-26.216 55.4-26.333zM197.95 237.988l-88.933 68.029c13.108-33.663 31.179-65.788 65.904-92.596l23.029 24.566z" fill="#D6572C"></path>
  <path d="M367.67 377.475c-1.3-4.017 21.613-12.875 23.976-12.992 2.483-0.116 33.779-5.55 37.087-4.016l10.984 4.962c21.85-8.15 32.954-15.591 42.52-26.458l-0.591 20.433c-7.558 11.809-53.621 39.33-76.18 52.559-0.945 0.47-1.653 1.887-2.483 2.479-5.55 3.779-7.675 6.85-8.029 7.087-1.183 0.825-21.966-28.583-27.283-44.054z" fill="#F1BA91"></path>
  <path d="M460.15 309.917l17.6 7.558 4.487 21.496-0.591 20.433 11.575-18.425c1.892-7.204 2.833-14.529 0.47-22.558-3.191-3.308-7.441-5.196-12.52-5.904l-21.021-2.6z" fill="#7F3431"></path>
  <path d="M239.758 230.43c19.609-1.655 41.1-1.063 66.734 5.078 37.204-40.391 79.012-55.037 123.541-53.504-26.458 20.904-49.016 47.834-62.362 88.7-11.692 36.73-9.33 71.808 0 105.942 5.079 15.47 14.525 30.47 27.283 44.879 4.488 21.375 3.425 41.1-2.008 59.408-13.583-11.22-27.4-15.825-41.221-13.229-86.458-4.842-114.092 49.604-100.746 145.275-34.608-87.637-5.554-152.95 85.038-193.933-32.6-48.309-19.963-117.754-6.025-162.046-19.838-14.287-52.909-21.608-90.234-26.57z m364.25 372.512c-12.404-45.234-52.087-56.925-115.391-39.33-30.121 16.417-71.575 21.38-91.534 6.855-0.354-0.238-0.708-0.592-1.062-0.709-19.25-9.808-35.667-19.841-48.304-34.254-1.417-1.65-3.309-2.833-4.959-4.25l-6.025 15.234c-0.945 35.195 54.092 65.312 124.725 53.029 63.063-10.984 109.005-7.438 142.55 3.425z" fill="#FF9D00"></path>
  <path d="M724.362 652.788c12.871-31.063 21.259-64.371 27.638-98.738l12.988 35.904c11.929-61.062 13.345-124.37 6.5-189.45 16.891 18.071 31.533 38.267 39.45 64.488-0.596-122.95-37.442-200.546-97.913-244.959 20.317-0.945 47.596 10.038 85.983 40.984-31.3-59.171-79.604-102.517-132.991-141.021 70.275 18.07 143.854 52.675 221.925 173.025l-29.409-76.533-62.591-63.542 53.029 47.125 4.017-10.038c110.666 131.925 96.375 245.784 61.412 356.688L724.363 652.788z" fill="#F5B144"></path>
  <path d="M830.42 570.108c45.355-67.912 57.876-152.004 39.093-251.687 69.92 127.792 70.158 273.304-27.988 443.97L775.5 802.309l54.92-232.2z" fill="#FF9D00"></path>
  <path d="M684.558 705.817c34.013-24.567 54.092-76.888 66.967-151.417 18.775 27.758 23.975 69.213 16.058 124.017 29.292-35.788 36.613-106.175 42.988-177.988 48.308 136.65 18.546 256.292-62.596 326.567 4.492-3.658-42.87-14.525-27.042-34.013 35.075-42.991 45.467-132.754 36.254-134.408-33.891 44.05-55.27 51.73-72.629 47.242z" fill="#FF9D00"></path>
  <path d="M590.538 792.98c85.987-21.497 136.537-64.372 164.054-121.063-1.65 78.304-31.063 137.945-102.992 169.012-43.58-11.454-60.467-28.108-61.063-47.95z" fill="#FF9D00"></path>
  <path d="M735.933 865.5l-21.966 21.492 23.979 0.47c-29.292 16.063-60.475 20.909-92.009 23.034 22.321-18.192 52.675-32.954 89.996-44.996z" fill="#10559A"></path>
</svg>