<svg xmlns="http://www.w3.org/2000/svg" height="21" width="21" viewBox="0 0 24 24">
<g fill="none">
<path fill="#727272" d="M12.223649,4.43383693 C14.6404028,4.43383693 17.0571567,4.43646968 19.471274,4.42857143 C19.6791148,4.42857143 19.7292076,4.48561431 19.7107524,4.68307048 C19.5916723,5.9406468 19.4805016,7.1991007 19.3697704,8.45667703 C19.2752973,9.53303247 19.1865365,10.6102655 19.0925028,11.686621 C18.9967115,12.7774565 18.896526,13.8682921 18.8002953,14.9591276 C18.7068475,16.0139823 18.6148644,17.068837 18.5243459,18.1236917 C18.480405,18.6326897 18.4298728,19.1416878 18.3955989,19.6515635 C18.3872501,19.7770579 18.3077169,19.7924156 18.229502,19.8121612 C16.9853864,20.1231181 15.740392,20.4324661 14.4945188,20.7402051 C13.8207571,20.908116 13.1461166,21.077197 12.4705973,21.2474481 C12.3387744,21.2816738 12.2100273,21.3027358 12.070295,21.2676325 C10.1248814,20.7802814 8.17829609,20.2954169 6.23053899,19.8130388 C6.09300372,19.778813 6.04159278,19.7274744 6.02841049,19.5712647 C5.88164762,17.8160989 5.72082364,16.0657597 5.56659079,14.3127878 C5.44179841,12.8867156 5.324476,11.4606433 5.19968364,10.0350099 C5.06083014,8.44921757 4.91963313,6.86371776 4.7760926,5.27851048 C4.75719799,5.06745179 4.7492886,4.85507672 4.71940873,4.6457732 C4.69392298,4.46630749 4.76334971,4.42901021 4.93164367,4.4303266 C6.18352215,4.43690846 7.43627944,4.43383693 8.68727908,4.43383693 L12.223649,4.43383693 Z"/>
<path fill="#282828" d="M12.3761987,7.50877503 C12.3761987,6.92761606 12.3784056,6.34601547 12.3717848,5.7648565 C12.3717848,5.62486608 12.4084199,5.57098964 12.5571674,5.57142857 C14.4698448,5.57555296 16.3825222,5.57555296 18.2951996,5.57142857 C18.383477,5.57142857 18.4364435,5.57142857 18.4276157,5.69773177 C18.3861253,6.36897922 18.3221242,7.0380186 18.2510609,7.70661637 C18.2069222,8.11378093 18.1901495,8.52359517 18.1543971,8.93120135 C18.1014307,9.53532405 18.0409606,10.1385635 17.98667,10.741803 C17.9513591,11.134836 17.9244344,11.5287523 17.8900062,11.922227 C17.8348328,12.5479886 17.7748042,13.1733085 17.7205136,13.7990701 C17.685644,14.1996105 17.6604849,14.6010342 17.6247326,15.0015746 C17.5717661,15.5981899 17.5112961,16.193922 17.4574469,16.7905373 C17.4221359,17.1835704 17.3802041,17.577045 17.3656384,17.9709613 C17.3563692,18.2129637 17.2897198,18.4501083 17.3153202,18.6938771 C17.3316516,18.8449078 17.1974699,18.8263602 17.118903,18.8471159 C16.2754122,19.0626216 15.4305974,19.2719448 14.5853411,19.4817097 C13.9179638,19.6477551 13.2483796,19.8045267 12.584092,19.9824956 C12.3951783,20.0332808 12.3695778,19.9727802 12.3713434,19.8111508 C12.3761986,19.2812187 12.3713434,18.7512865 12.3739917,18.2213543 C12.3739917,18.1308242 12.3784056,18.0447102 12.2857143,17.9921586 C12.3075363,17.9571192 12.3431126,17.9329087 12.3837022,17.9254755 C13.4703973,17.6989294 14.554444,17.4595767 15.6415804,17.2356804 C16.0074903,17.1601651 16.0167594,17.1575154 16.0467737,16.78303 C16.1350512,15.6918113 16.2396599,14.6019174 16.3292615,13.5106987 C16.3734002,12.9542699 16.4219528,12.3978411 16.4775675,11.8418539 C16.503168,11.5861616 16.4859539,11.557457 16.229508,11.5570154 C15.0682185,11.5548073 13.9064877,11.5570154 12.7425499,11.5570154 C12.6255824,11.5570154 12.5068492,11.5707053 12.3934127,11.5238946 C12.3686462,11.5107029 12.3487079,11.4899814 12.3364738,11.4647188 C12.2980731,11.3741888 12.3033698,11.2779177 12.3029284,11.1825299 L12.3029284,9.57462736 C12.2962886,9.48656361 12.3069348,9.39805089 12.3342669,9.31407735 C12.3462998,9.28803477 12.3660166,9.26630447 12.3907644,9.25181033 C12.5094975,9.19925872 12.6361756,9.21427346 12.7602054,9.21383184 L16.3301442,9.21383184 C16.6938472,9.21383184 16.6987025,9.21383184 16.7406342,8.84508737 C16.7799177,8.50239788 16.7971318,8.15705874 16.8381808,7.81436925 C16.8580432,7.64964865 16.7812418,7.58782323 16.6249908,7.58826485 L12.7465224,7.58826485 C12.6299962,7.58826485 12.5099389,7.60372121 12.4013577,7.54410383 L12.3761987,7.50877503 Z"/>
<path fill="#EAEAEA" d="M12.3565981,13.1345202 C10.981208,13.1368604 9.60596836,13.1396394 8.23087912,13.1428571 C8.12393443,13.1428571 8.07204142,13.1239894 8.06166282,13.0033238 C7.94734781,11.6869714 7.82927243,10.3698877 7.7074367,9.0520727 C7.6659223,8.59398207 7.62982283,8.13457509 7.57702734,7.67780081 C7.55581889,7.49438905 7.58740594,7.429449 7.80264907,7.43120414 C9.23850576,7.44217374 10.6739112,7.43690833 12.1097679,7.43646955 C12.1918942,7.43646955 12.2744718,7.43120414 12.3570493,7.42857143 L12.3534394,7.44480645 C12.4202234,7.50623622 12.4242846,7.58785007 12.4251871,7.66814756 C12.4296995,8.09903357 12.4296995,8.52991959 12.4251871,8.96080561 C12.4251871,9.04110311 12.4202234,9.12271696 12.3534394,9.18414672 L12.3575006,9.20038174 C12.2591295,9.27278112 12.1431599,9.2596176 12.0317028,9.2596176 L9.91085853,9.2596176 C9.6261239,9.2596176 9.60987914,9.27014841 9.62792888,9.54263337 C9.66267463,10.0669804 9.73306861,10.5886947 9.76330192,11.1134806 C9.77322929,11.2810961 9.87927149,11.3148825 10.0227669,11.3153212 L12.0511063,11.3153212 C12.1557948,11.3153212 12.2631907,11.3065456 12.3543419,11.3745571 L12.3502807,11.3907921 C12.4170647,11.4522219 12.4211259,11.5338357 12.4220284,11.6141332 C12.4265408,12.0450192 12.4265408,12.4759053 12.4220284,12.9067913 C12.4238334,12.9897215 12.4220284,13.0717741 12.3565981,13.1345202 L12.3565981,13.1345202 Z"/>
<path fill="#FEFEFE" d="M12.3584537,13.3157759 L12.356236,11.5823526 C13.7147774,11.5797308 15.0728752,11.5792939 16.4314165,11.5714286 C16.5813306,11.5714286 16.5768953,11.6413423 16.5675811,11.7462129 C16.4720737,12.7949187 16.3778968,13.8449354 16.2850506,14.896263 C16.2202948,15.6203069 16.1519907,16.3443509 16.0925573,17.0688319 C16.0823561,17.1959874 16.0521958,17.2436161 15.9111524,17.2733295 C14.7903447,17.4979273 13.6726417,17.7365079 12.5540517,17.9724667 C12.4897394,17.9860125 12.4272013,18.0161628 12.3597843,17.9890712 C12.2928108,17.9292076 12.2901496,17.8479329 12.2892626,17.7705908 C12.2845315,17.3371257 12.2845315,16.9038063 12.2892626,16.4706326 C12.2892626,16.3915427 12.2914802,16.309831 12.3580102,16.2495304 L12.3997022,16.2084561 C12.5163514,16.1027116 12.6702573,16.098779 12.8121879,16.0686287 C13.245076,15.975556 13.6775206,15.8807356 14.1121829,15.7946543 C14.289596,15.7592605 14.3734237,15.6775488 14.390278,15.4927144 C14.4435019,14.8988847 14.4985,14.305492 14.5503934,13.7116624 C14.5778924,13.3944288 14.5641429,13.3909332 14.248791,13.3904962 L12.6520725,13.3904962 C12.5496164,13.3904962 12.443612,13.4009833 12.3544619,13.3323804 L12.3584537,13.3157759 Z"/>
<path fill="#EAEAEA" d="M12.4285714,16.2175847 L12.4285714,17.978786 L12.3399609,18 C11.1716309,17.74941 10.0037439,17.4970522 8.83364164,17.2526496 C8.71844794,17.2287839 8.67680098,17.1898916 8.66749686,17.0758665 C8.59350705,16.1583624 8.51685893,15.2417422 8.43134976,14.3255639 C8.41717208,14.1761822 8.45483155,14.1399417 8.6005959,14.1430354 C9.06580126,14.1512853 9.53100662,14.1512853 9.99621197,14.1430354 C10.1433055,14.1403836 10.2026745,14.17795 10.2110925,14.3344031 C10.2336882,14.7383524 10.2850823,15.1409758 10.3036906,15.5449251 C10.3116655,15.7217082 10.3865414,15.7809305 10.5473696,15.8136354 C11.1756183,15.9400353 11.8016518,16.0810198 12.4285714,16.2175847 L12.4285714,16.2175847 Z"/>
<path fill="#727272" d="M12.4311288,13.1510365 C13.1461846,13.1510365 13.8612404,13.1510365 14.5767395,13.1428571 C14.6915562,13.1428571 14.7239177,13.1678496 14.7119484,13.2950837 C14.6410191,14.0543991 14.578956,14.8150777 14.5182228,15.5753019 C14.5111299,15.6584585 14.4956141,15.7170771 14.4011895,15.7366166 C13.7588362,15.8697581 13.1155963,16.0069892 12.4750163,16.1428571 C12.4054169,16.074696 12.4346752,15.9865409 12.4346752,15.9074739 C12.4305377,14.9886614 12.4293555,14.069849 12.4311288,13.1510365 L12.4311288,13.1510365 Z"/>
<path fill="#FEFEFE" d="M12.4285714,9.27336801 L12.4285714,7.4392136 C13.8605153,7.43643738 15.2916,7.43288999 16.7218255,7.42857143 C16.8412496,7.42857143 16.8653063,7.47484172 16.8549963,7.59098016 C16.8086013,8.11244637 16.7634951,8.63391257 16.7261213,9.15630417 C16.7149522,9.32519075 16.6097043,9.28030855 16.5267947,9.28030857 C15.6177968,9.28277632 14.708942,9.28277632 13.8002304,9.28030857 C13.3422948,9.28169667 12.8847887,9.27614425 12.4285714,9.27336801 L12.4285714,9.27336801 Z"/>
<path fill="#727272" d="M12.4285714,11.4178882 C11.5863412,11.4204522 10.7436542,11.4208795 9.90142388,11.4285714 C9.77079597,11.4285714 9.75298307,11.365327 9.74476175,11.2730243 C9.68903936,10.650836 9.63742762,10.0282203 9.57302716,9.40645922 C9.55704122,9.24920282 9.66437535,9.29065355 9.7420213,9.29065357 C10.3567946,9.28837449 10.9715679,9.28837449 11.5863412,9.29065357 C11.8672368,9.29065357 12.1476757,9.2957815 12.4285714,9.29834545 L12.4285714,11.4178882 Z"/>
<path fill="#D93934" d="M12,0 C5.4,0 0,5.4 0,12 C0,18.6 5.4,24 12,24 C18.6,24 24,18.6 24,12 C24,5.4 18.6,0 12,0 Z M19.7,18.3 L5.7,4.3 C7.4,2.8 9.6,2 12,2 C17.5,2 22,6.5 22,12 C22,14.4 21.2,16.6 19.7,18.3 Z M12,22 C6.5,22 2,17.5 2,12 C2,9.6 2.8,7.4 4.3,5.7 L18.4,19.8 C16.6,21.2 14.4,22 12,22 L12,22 Z"/></g>
</svg>