<svg viewBox="0 0 1024 1024" height="24" width="24" version="1.1" xmlns="http://www.w3.org/2000/svg" xmlns:xlink="http://www.w3.org/1999/xlink">
  <path d="M512 0C228.864 0 0 228.864 0 512s228.864 512 512 512 512-228.864 512-512S795.136 0 512 0z m0 896c-134.656 0-256-176.64-256-384s121.344-384 256-384 256 176.64 256 384-121.344 384-256 384z" fill="#FF1744"></path>
  <path d="M833.536 113.664C778.752 76.288 713.728 51.2 646.656 51.2c-100.864 0-192.512 50.688-260.096 130.048C424.448 147.968 467.456 128 512 128c134.656 0 256 176.64 256 384S646.656 896 512 896c-44.544 0-87.552-19.456-125.44-53.248C454.144 922.112 545.792 972.8 646.656 972.8c67.072 0 132.096-25.088 186.88-62.464C949.76 816.64 1024 673.28 1024 512c0-160.768-74.24-304.128-190.464-398.336z" fill="#D50000"></path>
</svg>