<svg viewBox="0 0 1024 1024" height="24" width="24" version="1.1" xmlns="http://www.w3.org/2000/svg" xmlns:xlink="http://www.w3.org/1999/xlink">
  <path d="M1006.08 512c0 272.794-221.286 494.08-494.08 494.08S17.92 784.742 17.92 512 239.258 17.92 512 17.92 1006.08 239.206 1006.08 512z" fill="#CFD8DC"></path>
  <path d="M931.942 512A419.84 419.84 0 0 1 512 931.942 419.84 419.84 0 0 1 92.058 512 419.84 419.84 0 0 1 512 92.058 419.84 419.84 0 0 1 931.942 512z" fill="#448AFF"></path>
  <path d="M460.083 460.083l103.834 103.834 227.225-331.06-331.059 227.226z" fill="#FF3D00"></path>
  <path d="M512 512l279.142-279.142-227.225 331.059L512 512z" fill="#BF360C"></path>
  <path d="M460.083 460.083l-227.225 331.06 331.059-227.226-103.834-103.834z" fill="#FFFFFF"></path>
  <path d="M512 512L232.858 791.142l331.059-227.225L512 512z" fill="#BDBDBD"></path>
  <path d="M341.606 183.45c14.797-7.424 29.645-14.797 44.39-19.815l29.697 66.765-44.442 19.712-29.645-66.662z m466.79 353.28h71.63c0-7.476 2.508-17.306 2.508-24.73 0-7.424 0-17.254-2.56-24.678h-71.526v49.356zM232.859 267.469l51.916 51.814 34.51-34.56-51.815-51.917-34.611 34.663z m303.82-123.546c-7.424-2.509-17.254-2.509-24.678-2.509-7.424 0-17.254 0-24.678 2.56v71.578h49.356v-71.578z m133.376 34.56a258.355 258.355 0 0 0-46.899-17.254L595.968 230.4l47.002 17.254 27.136-69.17zM227.942 425.472l17.255-46.848-66.663-27.238a261.12 261.12 0 0 0-17.254 46.899l66.662 27.187z m-12.39 61.85h-71.578c-2.508 7.424-2.508 17.254-2.508 24.678 0 7.424 0 17.254 2.56 24.678h71.526v-49.356z m580.454 111.104l-17.254 46.899 66.662 27.238a261.12 261.12 0 0 0 17.255-46.899l-66.663-27.187z m64.308-212.48a356.403 356.403 0 0 0-19.815-44.34L773.837 371.2l19.712 44.493 66.765-29.696zM791.09 756.48l-51.917-51.814-34.508 34.56 51.814 51.916 34.611-34.662zM250.112 652.8L230.4 608.256l-66.765 29.747c5.018 14.797 12.39 29.594 19.815 44.39l66.662-29.593zM652.8 773.888L608.256 793.6l29.747 66.765c14.797-5.018 29.594-12.39 44.39-19.815L652.8 773.888z m-227.277 22.17l-46.848-17.255-27.238 66.663a261.12 261.12 0 0 0 46.899 17.254l27.187-66.662z m111.155 83.968v-71.63h-49.356v71.63c7.424 0 17.254 2.508 24.678 2.508 7.424 0 17.254 0 24.678-2.56z" fill="#BBDEFB"></path>
</svg>